# xmcd CD database file
#
# Track frame offsets:
#	150
#	13122
#	33332
#	50510
#	67785
#	89055
#	104015
#	124550
#	142948
#	157985
#	176600
#	192530
#	205573
#	223867
#	242532
#	257507
#	273545
#	288300
#	304990
#
# Disc length: 4261 seconds
#
# Revision: 0
# Processed by: cddbd v1.5.2PL0 Copyright (c) Steve Scherf et al.
# Submitted via: CDex 1.70beta2
#
DISCID=1410a313
DTITLE=Shania Twain - Greatest Hits (Chinese Edition-CD1)
DYEAR=2005
DGENRE=Country
TTITLE0=Up
TTITLE1=I'm Gonna Get Cha Good
TTITLE2=She's Not Just a Pretty Face
TTITLE3=Juanita
TTITLE4=Forever And For Always
TTITLE5=It Only Hurts When I'm Breathing
TTITLE6=Wanna Get To Know You That Good
TTITLE7=I'm Jealous
TTITLE8=Ka-ching
TTITLE9=When You Kiss Me
TTITLE10=You're Still The One
TTITLE11=Come On Over
TTITLE12=Any Man of Mine
TTITLE13=Nah
TTITLE14=Waiter Bring Me Water
TTITLE15=Don't Be Stupid
TTITLE16=In My Car
TTITLE17=C'est La Vie
TTITLE18=You Got Away
EXTD=YEAR: 2005
EXTT0=
EXTT1=
EXTT2=
EXTT3=
EXTT4=
EXTT5=
EXTT6=
EXTT7=
EXTT8=
EXTT9=
EXTT10=
EXTT11=
EXTT12=
EXTT13=
EXTT14=
EXTT15=
EXTT16=
EXTT17=
EXTT18=
PLAYORDER=
